<?xml version="1.0" encoding="UTF-8" standalone="no"?>
<!-- Generator: Adobe Illustrator 24.2.0, SVG Export Plug-In . SVG Version: 6.00 Build 0)  -->

<svg
   version="1.1"
   id="Layer_1"
   x="0px"
   y="0px"
   viewBox="0 0 442.60001 219.3752"
   xml:space="preserve"
   sodipodi:docname="histogram-contrast.svg"
   width="442.60001"
   height="219.3752"
   inkscape:version="1.1 (c68e22c387, 2021-05-23)"
   xmlns:inkscape="http://www.inkscape.org/namespaces/inkscape"
   xmlns:sodipodi="http://sodipodi.sourceforge.net/DTD/sodipodi-0.dtd"
   xmlns:xlink="http://www.w3.org/1999/xlink"
   xmlns="http://www.w3.org/2000/svg"
   xmlns:svg="http://www.w3.org/2000/svg"><defs
   id="defs325" /><sodipodi:namedview
   id="namedview323"
   pagecolor="#ffffff"
   bordercolor="#666666"
   borderopacity="1.0"
   inkscape:pageshadow="2"
   inkscape:pageopacity="0.0"
   inkscape:pagecheckerboard="0"
   showgrid="false"
   fit-margin-top="0"
   fit-margin-left="0"
   fit-margin-right="0"
   fit-margin-bottom="0"
   inkscape:zoom="2.3755102"
   inkscape:cx="296.77835"
   inkscape:cy="213.63832"
   inkscape:window-width="2560"
   inkscape:window-height="1361"
   inkscape:window-x="-9"
   inkscape:window-y="-9"
   inkscape:window-maximized="1"
   inkscape:current-layer="Layer_1" />
<style
   type="text/css"
   id="style2">
	.st0{clip-path:url(#SVGID_2_);}
	.st1{fill:#FFFFFF;}
	.st2{font-family:'TimesNewRomanPSMT';}
	.st3{font-size:9px;}
	.st4{clip-path:url(#SVGID_6_);}
	.st5{clip-path:url(#SVGID_10_);}
	.st6{clip-path:url(#SVGID_14_);}
	.st7{clip-path:url(#SVGID_18_);}
	.st8{clip-path:url(#SVGID_22_);}
	.st9{clip-path:url(#SVGID_26_);}
	.st10{clip-path:url(#SVGID_30_);}
</style>
<g
   id="g22"
   transform="translate(-76.199997,-90)">
	<defs
   id="defs5">
		<rect
   id="SVGID_1_"
   x="411.20001"
   y="90"
   width="107.6"
   height="107.6" />
	</defs>
	<clipPath
   id="SVGID_2_">
		<use
   xlink:href="#SVGID_1_"
   style="overflow:visible"
   id="use7"
   x="0"
   y="0"
   width="100%"
   height="100%" />
	</clipPath>
	<g
   class="st0"
   clip-path="url(#SVGID_2_)"
   id="g20">
		<defs
   id="defs11">
			<rect
   id="SVGID_3_"
   x="411.10001"
   y="90"
   width="107.7"
   height="107.7" />
		</defs>
		<clipPath
   id="SVGID_4_">
			<use
   xlink:href="#SVGID_3_"
   style="overflow:visible"
   id="use13"
   x="0"
   y="0"
   width="100%"
   height="100%" />
		</clipPath>
		<g
   clip-path="url(#SVGID_4_)"
   id="g18">
			
				<image
   style="overflow:visible"
   width="225"
   height="225"
   xlink:href="4305CE65.jpg"
   transform="matrix(0.4786,0,0,0.4786,411.147,89.982)"
   id="image16">
			</image>
		</g>
	</g>
</g>
<rect
   x="338.29999"
   y="115"
   class="st1"
   width="101"
   height="101"
   id="rect24" />
<text
   class="st2 st3"
   id="text26"
   x="339.12811"
   y="132.2319">Histogram of </text>
<text
   class="st2 st3"
   id="text28"
   x="339.28833"
   y="141.2319">high-contrast image</text>
<g
   id="g48"
   transform="translate(-76.199997,-90)">
	<defs
   id="defs31">
		<rect
   id="SVGID_5_"
   x="411.39999"
   y="233.5"
   width="107.4"
   height="75.900002" />
	</defs>
	<clipPath
   id="SVGID_6_">
		<use
   xlink:href="#SVGID_5_"
   style="overflow:visible"
   id="use33"
   x="0"
   y="0"
   width="100%"
   height="100%" />
	</clipPath>
	<g
   class="st4"
   clip-path="url(#SVGID_6_)"
   id="g46">
		<defs
   id="defs37">
			<rect
   id="SVGID_7_"
   x="411.39999"
   y="233.5"
   width="107.5"
   height="75.900002" />
		</defs>
		<clipPath
   id="SVGID_8_">
			<use
   xlink:href="#SVGID_7_"
   style="overflow:visible"
   id="use39"
   x="0"
   y="0"
   width="100%"
   height="100%" />
		</clipPath>
		<g
   clip-path="url(#SVGID_8_)"
   id="g44">
			
				<image
   style="overflow:visible"
   width="224"
   height="158"
   xlink:href="4305CE67.jpg"
   transform="matrix(0.4798,0,0,0.4804,411.357,233.472)"
   id="image42">
			</image>
		</g>
	</g>
</g>
<path
   d="M 335.3,112.2 H 442.2 V 218.5 H 335.3 Z m -0.2,-0.5 -0.1,0.1 v 0.2 106.8 0.2 l 0.1,0.1 h 107.2 l 0.1,-0.1 v -0.2 h -0.2 v -0.2 0.2 h 0.2 v -106.9 -0.2 l -0.1,-0.1 H 335.1 Z"
   id="path50" />
<path
   d="m 439.8,133.5 h 2.5 c 0.1,0 0.2,-0.1 0.2,-0.2 0,-0.1 -0.1,-0.2 -0.2,-0.2 h -2.5 c -0.1,0 -0.2,0.1 -0.2,0.2 0,0.1 0.1,0.2 0.2,0.2"
   id="path52" />
<path
   d="m 439.8,154.9 h 2.5 c 0.1,0 0.2,-0.1 0.2,-0.2 0,-0.1 -0.1,-0.2 -0.2,-0.2 h -2.5 c -0.1,0 -0.2,0.1 -0.2,0.2 0,0.1 0.1,0.2 0.2,0.2"
   id="path54" />
<path
   d="m 439.8,176.2 h 2.5 c 0.1,0 0.2,-0.1 0.2,-0.2 0,-0.1 -0.1,-0.2 -0.2,-0.2 h -2.5 c -0.1,0 -0.2,0.1 -0.2,0.2 0,0.1 0.1,0.2 0.2,0.2"
   id="path56" />
<path
   d="m 439.8,197.6 h 2.5 c 0.1,0 0.2,-0.1 0.2,-0.2 0,-0.1 -0.1,-0.2 -0.2,-0.2 h -2.5 c -0.1,0 -0.2,0.1 -0.2,0.2 0,0.1 0.1,0.2 0.2,0.2"
   id="path58" />
<path
   d="m 335.2,133.5 h 2.5 c 0.1,0 0.2,-0.1 0.2,-0.2 0,-0.1 -0.1,-0.2 -0.2,-0.2 h -2.5 c -0.1,0 -0.2,0.1 -0.2,0.2 0,0.1 0.1,0.2 0.2,0.2"
   id="path60" />
<path
   d="m 335.2,154.9 h 2.5 c 0.1,0 0.2,-0.1 0.2,-0.2 0,-0.1 -0.1,-0.2 -0.2,-0.2 h -2.5 c -0.1,0 -0.2,0.1 -0.2,0.2 0,0.1 0.1,0.2 0.2,0.2"
   id="path62" />
<path
   d="m 335.2,176.2 h 2.5 c 0.1,0 0.2,-0.1 0.2,-0.2 0,-0.1 -0.1,-0.2 -0.2,-0.2 h -2.5 c -0.1,0 -0.2,0.1 -0.2,0.2 0,0.1 0.1,0.2 0.2,0.2"
   id="path64" />
<path
   d="m 335.2,197.6 h 2.5 c 0.1,0 0.2,-0.1 0.2,-0.2 0,-0.1 -0.1,-0.2 -0.2,-0.2 h -2.5 c -0.1,0 -0.2,0.1 -0.2,0.2 0,0.1 0.1,0.2 0.2,0.2"
   id="path66" />
<path
   d="m 356.4,112.1 v 3.5 c 0,0.1 0.1,0.2 0.2,0.2 0.1,0 0.2,-0.1 0.2,-0.2 v -3.5 c 0,-0.1 -0.1,-0.2 -0.2,-0.2 -0.1,0 -0.2,0.1 -0.2,0.2"
   id="path68" />
<path
   d="m 377.9,112.1 v 3.5 c 0,0.1 0.1,0.2 0.2,0.2 0.1,0 0.2,-0.1 0.2,-0.2 v -3.5 c 0,-0.1 -0.1,-0.2 -0.2,-0.2 -0.2,0 -0.2,0.1 -0.2,0.2"
   id="path70" />
<path
   d="m 399.3,112.1 v 3.5 c 0,0.1 0.1,0.2 0.2,0.2 0.1,0 0.2,-0.1 0.2,-0.2 v -3.5 c 0,-0.1 -0.1,-0.2 -0.2,-0.2 -0.1,0 -0.2,0.1 -0.2,0.2"
   id="path72" />
<path
   d="m 420.8,112.1 v 3.5 c 0,0.1 0.1,0.2 0.2,0.2 0.1,0 0.2,-0.1 0.2,-0.2 v -3.5 c 0,-0.1 -0.1,-0.2 -0.2,-0.2 -0.2,0 -0.2,0.1 -0.2,0.2"
   id="path74" />
<path
   d="m 356.4,215.3 v 3.5 c 0,0.1 0.1,0.2 0.2,0.2 0.1,0 0.2,-0.1 0.2,-0.2 v -3.5 c 0,-0.1 -0.1,-0.2 -0.2,-0.2 -0.1,0 -0.2,0 -0.2,0.2"
   id="path76" />
<path
   d="m 377.9,215.3 v 3.5 c 0,0.1 0.1,0.2 0.2,0.2 0.1,0 0.2,-0.1 0.2,-0.2 v -3.5 c 0,-0.1 -0.1,-0.2 -0.2,-0.2 -0.2,-0.1 -0.2,0 -0.2,0.2"
   id="path78" />
<path
   d="m 399.3,215.3 v 3.5 c 0,0.1 0.1,0.2 0.2,0.2 0.1,0 0.2,-0.1 0.2,-0.2 v -3.5 c 0,-0.1 -0.1,-0.2 -0.2,-0.2 -0.1,-0.1 -0.2,0 -0.2,0.2"
   id="path80" />
<path
   d="m 420.8,215.3 v 3.5 c 0,0.1 0.1,0.2 0.2,0.2 0.1,0 0.2,-0.1 0.2,-0.2 v -3.5 c 0,-0.1 -0.1,-0.2 -0.2,-0.2 -0.2,-0.1 -0.2,0 -0.2,0.2"
   id="path82" />
<g
   id="g102"
   transform="translate(-76.199997,-90)">
	<defs
   id="defs85">
		<rect
   id="SVGID_9_"
   x="299.5"
   y="90"
   width="107.6"
   height="107.6" />
	</defs>
	<clipPath
   id="SVGID_10_">
		<use
   xlink:href="#SVGID_9_"
   style="overflow:visible"
   id="use87"
   x="0"
   y="0"
   width="100%"
   height="100%" />
	</clipPath>
	<g
   class="st5"
   clip-path="url(#SVGID_10_)"
   id="g100">
		<defs
   id="defs91">
			<rect
   id="SVGID_11_"
   x="299.5"
   y="90"
   width="107.7"
   height="107.7" />
		</defs>
		<clipPath
   id="SVGID_12_">
			<use
   xlink:href="#SVGID_11_"
   style="overflow:visible"
   id="use93"
   x="0"
   y="0"
   width="100%"
   height="100%" />
		</clipPath>
		<g
   clip-path="url(#SVGID_12_)"
   id="g98">
			
				<image
   style="overflow:visible"
   width="225"
   height="225"
   xlink:href="4305CE62.jpg"
   transform="matrix(0.4786,0,0,0.4786,299.487,89.982)"
   id="image96">
			</image>
		</g>
	</g>
</g>
<rect
   x="226.59999"
   y="115"
   class="st1"
   width="101"
   height="101"
   id="rect104" />
<g
   id="g124"
   transform="translate(-76.199997,-90)">
	<defs
   id="defs107">
		<rect
   id="SVGID_13_"
   x="338.89999"
   y="226.8"
   width="19.799999"
   height="82.5" />
	</defs>
	<clipPath
   id="SVGID_14_">
		<use
   xlink:href="#SVGID_13_"
   style="overflow:visible"
   id="use109"
   x="0"
   y="0"
   width="100%"
   height="100%" />
	</clipPath>
	<g
   class="st6"
   clip-path="url(#SVGID_14_)"
   id="g122">
		<defs
   id="defs113">
			<rect
   id="SVGID_15_"
   x="338.89999"
   y="226.8"
   width="19.799999"
   height="82.599998" />
		</defs>
		<clipPath
   id="SVGID_16_">
			<use
   xlink:href="#SVGID_15_"
   style="overflow:visible"
   id="use115"
   x="0"
   y="0"
   width="100%"
   height="100%" />
		</clipPath>
		<g
   clip-path="url(#SVGID_16_)"
   id="g120">
			
				<image
   style="overflow:visible"
   width="42"
   height="172"
   xlink:href="4305CE63.jpg"
   transform="matrix(0.4716,0,0,0.4802,338.907,226.782)"
   id="image118">
			</image>
		</g>
	</g>
</g>
<polyline
   points="407,308.6 407,308.4 299.8,308.4 299.8,202.2 406.8,202.2 406.8,308.6 407,308.6 407,308.4 407,308.6 407.1,308.6   407.1,202 407.1,201.8 407,201.7 299.7,201.7 299.6,201.8 299.5,202 299.5,308.6 299.6,308.8 299.7,308.9 407,308.9 407.1,308.8   407.1,308.6 "
   id="polyline126"
   transform="translate(-76.199997,-90)" />
<path
   d="m 328.2,133.5 h 2.5 c 0.1,0 0.2,-0.1 0.2,-0.2 0,-0.1 -0.1,-0.2 -0.2,-0.2 h -2.5 c -0.1,0 -0.2,0.1 -0.2,0.2 0,0.1 0.1,0.2 0.2,0.2"
   id="path128" />
<path
   d="m 328.2,154.8 h 2.5 c 0.1,0 0.2,-0.1 0.2,-0.2 0,-0.1 -0.1,-0.2 -0.2,-0.2 h -2.5 c -0.1,0 -0.2,0.1 -0.2,0.2 0,0.1 0.1,0.2 0.2,0.2"
   id="path130" />
<path
   d="m 328.2,176.2 h 2.5 c 0.1,0 0.2,-0.1 0.2,-0.2 0,-0.1 -0.1,-0.2 -0.2,-0.2 h -2.5 c -0.1,0 -0.2,0.1 -0.2,0.2 0,0.1 0.1,0.2 0.2,0.2"
   id="path132" />
<path
   d="m 328.2,197.5 h 2.5 c 0.1,0 0.2,-0.1 0.2,-0.2 0,-0.1 -0.1,-0.2 -0.2,-0.2 h -2.5 c -0.1,0 -0.2,0.1 -0.2,0.2 0,0.1 0.1,0.2 0.2,0.2"
   id="path134" />
<path
   d="m 223.5,133.5 h 2.5 c 0.1,0 0.2,-0.1 0.2,-0.2 0,-0.1 -0.1,-0.2 -0.2,-0.2 h -2.5 c -0.1,0 -0.2,0.1 -0.2,0.2 0,0.1 0.1,0.2 0.2,0.2"
   id="path136" />
<path
   d="m 223.5,154.8 h 2.5 c 0.1,0 0.2,-0.1 0.2,-0.2 0,-0.1 -0.1,-0.2 -0.2,-0.2 h -2.5 c -0.1,0 -0.2,0.1 -0.2,0.2 0,0.1 0.1,0.2 0.2,0.2"
   id="path138" />
<path
   d="m 223.5,176.2 h 2.5 c 0.1,0 0.2,-0.1 0.2,-0.2 0,-0.1 -0.1,-0.2 -0.2,-0.2 h -2.5 c -0.1,0 -0.2,0.1 -0.2,0.2 0,0.1 0.1,0.2 0.2,0.2"
   id="path140" />
<path
   d="m 223.5,197.5 h 2.5 c 0.1,0 0.2,-0.1 0.2,-0.2 0,-0.1 -0.1,-0.2 -0.2,-0.2 h -2.5 c -0.1,0 -0.2,0.1 -0.2,0.2 0,0.1 0.1,0.2 0.2,0.2"
   id="path142" />
<path
   d="m 244.8,112.1 v 3.5 c 0,0.1 0.1,0.2 0.2,0.2 0.1,0 0.2,-0.1 0.2,-0.2 v -3.5 c 0,-0.1 -0.1,-0.2 -0.2,-0.2 -0.1,0 -0.2,0.1 -0.2,0.2"
   id="path144" />
<path
   d="m 266.2,112.1 v 3.5 c 0,0.1 0.1,0.2 0.2,0.2 0.1,0 0.2,-0.1 0.2,-0.2 v -3.5 c 0,-0.1 -0.1,-0.2 -0.2,-0.2 -0.1,0 -0.2,0.1 -0.2,0.2"
   id="path146" />
<path
   d="m 287.7,112.1 v 3.5 c 0,0.1 0.1,0.2 0.2,0.2 0.1,0 0.2,-0.1 0.2,-0.2 v -3.5 c 0,-0.1 -0.1,-0.2 -0.2,-0.2 -0.1,0 -0.2,0.1 -0.2,0.2"
   id="path148" />
<path
   d="m 309.2,112.1 v 3.5 c 0,0.1 0.1,0.2 0.2,0.2 0.1,0 0.2,-0.1 0.2,-0.2 v -3.5 c 0,-0.1 -0.1,-0.2 -0.2,-0.2 -0.2,0 -0.2,0.1 -0.2,0.2"
   id="path150" />
<path
   d="m 244.8,215.2 v 3.5 c 0,0.1 0.1,0.2 0.2,0.2 0.1,0 0.2,-0.1 0.2,-0.2 v -3.5 c 0,-0.1 -0.1,-0.2 -0.2,-0.2 -0.1,-0.1 -0.2,0 -0.2,0.2"
   id="path152" />
<path
   d="m 266.2,215.2 v 3.5 c 0,0.1 0.1,0.2 0.2,0.2 0.1,0 0.2,-0.1 0.2,-0.2 v -3.5 c 0,-0.1 -0.1,-0.2 -0.2,-0.2 -0.1,-0.1 -0.2,0 -0.2,0.2"
   id="path154" />
<path
   d="m 287.7,215.2 v 3.5 c 0,0.1 0.1,0.2 0.2,0.2 0.1,0 0.2,-0.1 0.2,-0.2 v -3.5 c 0,-0.1 -0.1,-0.2 -0.2,-0.2 -0.1,-0.1 -0.2,0 -0.2,0.2"
   id="path156" />
<path
   d="m 309.2,215.2 v 3.5 c 0,0.1 0.1,0.2 0.2,0.2 0.1,0 0.2,-0.1 0.2,-0.2 v -3.5 c 0,-0.1 -0.1,-0.2 -0.2,-0.2 -0.2,-0.1 -0.2,0 -0.2,0.2"
   id="path158" />
<text
   class="st2 st3"
   id="text160"
   x="227.47191"
   y="132.5601">Histogram of </text>
<text
   class="st2 st3"
   id="text162"
   x="227.47191"
   y="141.5601">low-contrast image</text>
<g
   id="g182"
   transform="translate(-76.199997,-90)">
	<defs
   id="defs165">
		<rect
   id="SVGID_17_"
   x="76.199997"
   y="90"
   width="107.6"
   height="107.6" />
	</defs>
	<clipPath
   id="SVGID_18_">
		<use
   xlink:href="#SVGID_17_"
   style="overflow:visible"
   id="use167"
   x="0"
   y="0"
   width="100%"
   height="100%" />
	</clipPath>
	<g
   class="st7"
   clip-path="url(#SVGID_18_)"
   id="g180">
		<defs
   id="defs171">
			<rect
   id="SVGID_19_"
   x="76.199997"
   y="90"
   width="107.6"
   height="107.7" />
		</defs>
		<clipPath
   id="SVGID_20_">
			<use
   xlink:href="#SVGID_19_"
   style="overflow:visible"
   id="use173"
   x="0"
   y="0"
   width="100%"
   height="100%" />
		</clipPath>
		<g
   clip-path="url(#SVGID_20_)"
   id="g178">
			
				<image
   style="overflow:visible"
   width="225"
   height="225"
   xlink:href="4305CE6D.jpg"
   transform="matrix(0.4784,0,0,0.4786,76.197,89.982)"
   id="image176">
			</image>
		</g>
	</g>
</g>
<text
   class="st2 st3"
   id="text184"
   x="4.1520996"
   y="131.6162">Histogram of </text>
<text
   class="st2 st3"
   id="text186"
   x="4.1520996"
   y="140.6162">dark image</text>
<g
   id="g206"
   transform="translate(-76.199997,-90)">
	<defs
   id="defs189">
		<rect
   id="SVGID_21_"
   x="80.699997"
   y="232.3"
   width="28.700001"
   height="76.900002" />
	</defs>
	<clipPath
   id="SVGID_22_">
		<use
   xlink:href="#SVGID_21_"
   style="overflow:visible"
   id="use191"
   x="0"
   y="0"
   width="100%"
   height="100%" />
	</clipPath>
	<g
   class="st8"
   clip-path="url(#SVGID_22_)"
   id="g204">
		<defs
   id="defs195">
			<rect
   id="SVGID_23_"
   x="80.599998"
   y="232.3"
   width="28.700001"
   height="77" />
		</defs>
		<clipPath
   id="SVGID_24_">
			<use
   xlink:href="#SVGID_23_"
   style="overflow:visible"
   id="use197"
   x="0"
   y="0"
   width="100%"
   height="100%" />
		</clipPath>
		<g
   clip-path="url(#SVGID_24_)"
   id="g202">
			
				<image
   style="overflow:visible"
   width="59"
   height="160"
   xlink:href="4305CE6F.jpg"
   transform="matrix(0.4862,0,0,0.481,80.637,232.272)"
   id="image200">
			</image>
		</g>
	</g>
</g>
<path
   d="M 0.30000305,112 H 107.3 V 218.3 H 0.30000305 Z m -0.1,-0.4 -0.1,0.1 v 0.2 106.7 0.2 l 0.1,0.1 H 107.5 l 0.1,-0.1 v -0.2 h -0.2 v -0.2 0.2 h 0.2 v -106.8 -0.2 l -0.1,-0.1 H 0.20000305 Z"
   id="path208" />
<path
   d="m 104.9,133.4 h 2.5 c 0.1,0 0.2,-0.1 0.2,-0.2 0,-0.1 -0.1,-0.2 -0.2,-0.2 h -2.5 c -0.1,0 -0.2,0.1 -0.2,0.2 0,0.1 0.1,0.2 0.2,0.2"
   id="path210" />
<path
   d="m 104.9,154.7 h 2.5 c 0.1,0 0.2,-0.1 0.2,-0.2 0,-0.1 -0.1,-0.2 -0.2,-0.2 h -2.5 c -0.1,0 -0.2,0.1 -0.2,0.2 0,0.1 0.1,0.2 0.2,0.2"
   id="path212" />
<path
   d="m 104.9,176 h 2.5 c 0.1,0 0.2,-0.1 0.2,-0.2 0,-0.1 -0.1,-0.2 -0.2,-0.2 h -2.5 c -0.1,0 -0.2,0.1 -0.2,0.2 0,0.1 0.1,0.2 0.2,0.2"
   id="path214" />
<path
   d="m 104.9,197.4 h 2.5 c 0.1,0 0.2,-0.1 0.2,-0.2 0,-0.1 -0.1,-0.2 -0.2,-0.2 h -2.5 c -0.1,0 -0.2,0.1 -0.2,0.2 0,0.1 0.1,0.2 0.2,0.2"
   id="path216" />
<path
   d="M 0.20000305,133.4 H 2.7000031 c 0.1,0 0.2,-0.1 0.2,-0.2 0,-0.1 -0.1,-0.2 -0.2,-0.2 H 0.20000305 c -0.1,0 -0.1999999982422,0.1 -0.1999999982422,0.2 0,0.1 0.099999998242,0.2 0.1999999982422,0.2"
   id="path218" />
<path
   d="M 0.20000305,154.7 H 2.7000031 c 0.1,0 0.2,-0.1 0.2,-0.2 0,-0.1 -0.1,-0.2 -0.2,-0.2 H 0.20000305 c -0.1,0 -0.1999999982422,0.1 -0.1999999982422,0.2 0,0.1 0.099999998242,0.2 0.1999999982422,0.2"
   id="path220" />
<path
   d="M 0.20000305,176 H 2.7000031 c 0.1,0 0.2,-0.1 0.2,-0.2 0,-0.1 -0.1,-0.2 -0.2,-0.2 H 0.20000305 c -0.1,0 -0.1999999982422,0.1 -0.1999999982422,0.2 0,0.1 0.099999998242,0.2 0.1999999982422,0.2"
   id="path222" />
<path
   d="M 0.20000305,197.4 H 2.7000031 c 0.1,0 0.2,-0.1 0.2,-0.2 0,-0.1 -0.1,-0.2 -0.2,-0.2 H 0.20000305 c -0.1,0 -0.1999999982422,0.1 -0.1999999982422,0.2 0,0.1 0.099999998242,0.2 0.1999999982422,0.2"
   id="path224" />
<path
   d="m 21.500003,112 v 3.5 c 0,0.1 0.1,0.2 0.2,0.2 0.1,0 0.2,-0.1 0.2,-0.2 V 112 c 0,-0.1 -0.1,-0.2 -0.2,-0.2 -0.2,-0.1 -0.2,0 -0.2,0.2"
   id="path226" />
<path
   d="m 42.900003,112 v 3.5 c 0,0.1 0.1,0.2 0.2,0.2 0.1,0 0.2,-0.1 0.2,-0.2 V 112 c 0,-0.1 -0.1,-0.2 -0.2,-0.2 -0.1,-0.1 -0.2,0 -0.2,0.2"
   id="path228" />
<path
   d="m 64.400003,112 v 3.5 c 0,0.1 0.1,0.2 0.2,0.2 0.1,0 0.2,-0.1 0.2,-0.2 V 112 c 0,-0.1 -0.1,-0.2 -0.2,-0.2 -0.1,-0.1 -0.2,0 -0.2,0.2"
   id="path230" />
<path
   d="m 85.800003,112 v 3.5 c 0,0.1 0.1,0.2 0.2,0.2 0.1,0 0.2,-0.1 0.2,-0.2 V 112 c 0,-0.1 -0.1,-0.2 -0.2,-0.2 -0.1,0 -0.2,0 -0.2,0.2"
   id="path232" />
<path
   d="m 21.500003,215 v 3.5 c 0,0.1 0.1,0.2 0.2,0.2 0.1,0 0.2,-0.1 0.2,-0.2 V 215 c 0,-0.1 -0.1,-0.2 -0.2,-0.2 -0.2,0 -0.2,0.1 -0.2,0.2"
   id="path234" />
<path
   d="m 42.900003,215 v 3.5 c 0,0.1 0.1,0.2 0.2,0.2 0.1,0 0.2,-0.1 0.2,-0.2 V 215 c 0,-0.1 -0.1,-0.2 -0.2,-0.2 -0.1,0 -0.2,0.1 -0.2,0.2"
   id="path236" />
<path
   d="m 64.400003,215 v 3.5 c 0,0.1 0.1,0.2 0.2,0.2 0.1,0 0.2,-0.1 0.2,-0.2 V 215 c 0,-0.1 -0.1,-0.2 -0.2,-0.2 -0.1,0 -0.2,0.1 -0.2,0.2"
   id="path238" />
<path
   d="m 85.800003,215 v 3.5 c 0,0.1 0.1,0.2 0.2,0.2 0.1,0 0.2,-0.1 0.2,-0.2 V 215 c 0,-0.1 -0.1,-0.2 -0.2,-0.2 -0.1,0 -0.2,0.1 -0.2,0.2"
   id="path240" />
<g
   id="g260"
   transform="translate(-76.199997,-90)">
	<defs
   id="defs243">
		<rect
   id="SVGID_25_"
   x="187.89999"
   y="90"
   width="107.6"
   height="107.6" />
	</defs>
	<clipPath
   id="SVGID_26_">
		<use
   xlink:href="#SVGID_25_"
   style="overflow:visible"
   id="use245"
   x="0"
   y="0"
   width="100%"
   height="100%" />
	</clipPath>
	<g
   class="st9"
   clip-path="url(#SVGID_26_)"
   id="g258">
		<defs
   id="defs249">
			<rect
   id="SVGID_27_"
   x="187.89999"
   y="90"
   width="107.6"
   height="107.7" />
		</defs>
		<clipPath
   id="SVGID_28_">
			<use
   xlink:href="#SVGID_27_"
   style="overflow:visible"
   id="use251"
   x="0"
   y="0"
   width="100%"
   height="100%" />
		</clipPath>
		<g
   clip-path="url(#SVGID_28_)"
   id="g256">
			
				<image
   style="overflow:visible"
   width="225"
   height="225"
   xlink:href="4305CE60.jpg"
   transform="matrix(0.4784,0,0,0.4786,187.857,89.982)"
   id="image254">
			</image>
		</g>
	</g>
</g>
<rect
   x="115"
   y="114.89999"
   class="st1"
   width="101"
   height="101"
   id="rect262" />
<g
   id="g282"
   transform="translate(-76.199997,-90)">
	<defs
   id="defs265">
		<rect
   id="SVGID_29_"
   x="243.2"
   y="201.60001"
   width="52"
   height="107.6" />
	</defs>
	<clipPath
   id="SVGID_30_">
		<use
   xlink:href="#SVGID_29_"
   style="overflow:visible"
   id="use267"
   x="0"
   y="0"
   width="100%"
   height="100%" />
	</clipPath>
	<g
   class="st10"
   clip-path="url(#SVGID_30_)"
   id="g280">
		<defs
   id="defs271">
			<rect
   id="SVGID_31_"
   x="243.2"
   y="201.60001"
   width="52"
   height="107.7" />
		</defs>
		<clipPath
   id="SVGID_32_">
			<use
   xlink:href="#SVGID_31_"
   style="overflow:visible"
   id="use273"
   x="0"
   y="0"
   width="100%"
   height="100%" />
		</clipPath>
		<g
   clip-path="url(#SVGID_32_)"
   id="g278">
			
				<image
   style="overflow:visible"
   width="108"
   height="224"
   xlink:href="4305CE61.jpg"
   transform="matrix(0.4817,0,0,0.4807,243.207,201.552)"
   id="image276">
			</image>
		</g>
	</g>
</g>
<polyline
   points="295.3,308.8 295.3,308.5 188.2,308.5 188.2,202.2 295.2,202.2 295.2,308.8 295.3,308.8 295.3,308.5 295.3,308.8   295.5,308.8 295.5,202 295.4,201.9 295.3,201.8 188,201.8 187.9,201.9 187.9,202 187.9,308.8 187.9,308.9 188,309 295.3,309   295.4,308.9 295.5,308.8 "
   id="polyline284"
   transform="translate(-76.199997,-90)" />
<path
   d="m 216.5,133.6 h 2.5 c 0.1,0 0.2,-0.1 0.2,-0.2 0,-0.1 -0.1,-0.2 -0.2,-0.2 h -2.5 c -0.1,0 -0.2,0.1 -0.2,0.2 0.1,0.1 0.1,0.2 0.2,0.2"
   id="path286" />
<path
   d="m 216.5,154.9 h 2.5 c 0.1,0 0.2,-0.1 0.2,-0.2 0,-0.1 -0.1,-0.2 -0.2,-0.2 h -2.5 c -0.1,0 -0.2,0.1 -0.2,0.2 0.1,0.1 0.1,0.2 0.2,0.2"
   id="path288" />
<path
   d="m 216.5,176.3 h 2.5 c 0.1,0 0.2,-0.1 0.2,-0.2 0,-0.1 -0.1,-0.2 -0.2,-0.2 h -2.5 c -0.1,0 -0.2,0.1 -0.2,0.2 0.1,0.1 0.1,0.2 0.2,0.2"
   id="path290" />
<path
   d="m 216.5,197.6 h 2.5 c 0.1,0 0.2,-0.1 0.2,-0.2 0,-0.1 -0.1,-0.2 -0.2,-0.2 h -2.5 c -0.1,0 -0.2,0.1 -0.2,0.2 0.1,0.1 0.1,0.2 0.2,0.2"
   id="path292" />
<path
   d="m 111.9,133.6 h 2.5 c 0.1,0 0.2,-0.1 0.2,-0.2 0,-0.1 -0.1,-0.2 -0.2,-0.2 h -2.5 c -0.1,0 -0.2,0.1 -0.2,0.2 0,0.1 0.1,0.2 0.2,0.2"
   id="path294" />
<path
   d="m 111.9,154.9 h 2.5 c 0.1,0 0.2,-0.1 0.2,-0.2 0,-0.1 -0.1,-0.2 -0.2,-0.2 h -2.5 c -0.1,0 -0.2,0.1 -0.2,0.2 0,0.1 0.1,0.2 0.2,0.2"
   id="path296" />
<path
   d="m 111.9,176.3 h 2.5 c 0.1,0 0.2,-0.1 0.2,-0.2 0,-0.1 -0.1,-0.2 -0.2,-0.2 h -2.5 c -0.1,0 -0.2,0.1 -0.2,0.2 0,0.1 0.1,0.2 0.2,0.2"
   id="path298" />
<path
   d="m 111.9,197.6 h 2.5 c 0.1,0 0.2,-0.1 0.2,-0.2 0,-0.1 -0.1,-0.2 -0.2,-0.2 h -2.5 c -0.1,0 -0.2,0.1 -0.2,0.2 0,0.1 0.1,0.2 0.2,0.2"
   id="path300" />
<path
   d="m 133.1,112.2 v 3.5 c 0,0.1 0.1,0.2 0.2,0.2 0.1,0 0.2,-0.1 0.2,-0.2 v -3.5 c 0,-0.1 -0.1,-0.2 -0.2,-0.2 -0.1,0 -0.2,0.1 -0.2,0.2"
   id="path302" />
<path
   d="m 154.6,112.2 v 3.5 c 0,0.1 0.1,0.2 0.2,0.2 0.1,0 0.2,-0.1 0.2,-0.2 v -3.5 c 0,-0.1 -0.1,-0.2 -0.2,-0.2 -0.1,0 -0.2,0.1 -0.2,0.2"
   id="path304" />
<path
   d="m 176,112.2 v 3.5 c 0,0.1 0.1,0.2 0.2,0.2 0.1,0 0.2,-0.1 0.2,-0.2 v -3.5 c 0,-0.1 -0.1,-0.2 -0.2,-0.2 -0.1,0 -0.2,0.1 -0.2,0.2"
   id="path306" />
<path
   d="m 197.5,112.2 v 3.5 c 0,0.1 0.1,0.2 0.2,0.2 0.1,0 0.2,-0.1 0.2,-0.2 v -3.5 c 0,-0.1 -0.1,-0.2 -0.2,-0.2 -0.1,0 -0.2,0.1 -0.2,0.2"
   id="path308" />
<path
   d="m 133.1,215.3 v 3.5 c 0,0.1 0.1,0.2 0.2,0.2 0.1,0 0.2,-0.1 0.2,-0.2 v -3.5 c 0,-0.1 -0.1,-0.2 -0.2,-0.2 -0.1,0 -0.2,0.1 -0.2,0.2"
   id="path310" />
<path
   d="m 154.6,215.3 v 3.5 c 0,0.1 0.1,0.2 0.2,0.2 0.1,0 0.2,-0.1 0.2,-0.2 v -3.5 c 0,-0.1 -0.1,-0.2 -0.2,-0.2 -0.1,0 -0.2,0.1 -0.2,0.2"
   id="path312" />
<path
   d="m 176,215.3 v 3.5 c 0,0.1 0.1,0.2 0.2,0.2 0.1,0 0.2,-0.1 0.2,-0.2 v -3.5 c 0,-0.1 -0.1,-0.2 -0.2,-0.2 -0.1,0 -0.2,0.1 -0.2,0.2"
   id="path314" />
<path
   d="m 197.5,215.3 v 3.5 c 0,0.1 0.1,0.2 0.2,0.2 0.1,0 0.2,-0.1 0.2,-0.2 v -3.5 c 0,-0.1 -0.1,-0.2 -0.2,-0.2 -0.1,0 -0.2,0.1 -0.2,0.2"
   id="path316" />
<text
   class="st2 st3"
   id="text318"
   x="115.8161"
   y="131.168">Histogram of </text>
<text
   class="st2 st3"
   id="text320"
   x="115.8161"
   y="140.168">light image</text>
</svg>
