<?xml version="1.0" encoding="UTF-8" standalone="no"?>
<!-- Generator: Adobe Illustrator 24.2.0, SVG Export Plug-In . SVG Version: 6.00 Build 0)  -->

<svg
   version="1.1"
   id="Layer_1"
   x="0px"
   y="0px"
   viewBox="0 0 447.56113 232.68541"
   xml:space="preserve"
   sodipodi:docname="digital_image_acquisition.svg"
   width="447.56113"
   height="232.68541"
   inkscape:version="1.1 (c68e22c387, 2021-05-23)"
   xmlns:inkscape="http://www.inkscape.org/namespaces/inkscape"
   xmlns:sodipodi="http://sodipodi.sourceforge.net/DTD/sodipodi-0.dtd"
   xmlns:xlink="http://www.w3.org/1999/xlink"
   xmlns="http://www.w3.org/2000/svg"
   xmlns:svg="http://www.w3.org/2000/svg"><defs
   id="defs379" /><sodipodi:namedview
   id="namedview377"
   pagecolor="#ffffff"
   bordercolor="#666666"
   borderopacity="1.0"
   inkscape:pageshadow="2"
   inkscape:pageopacity="0.0"
   inkscape:pagecheckerboard="0"
   showgrid="false"
   fit-margin-top="0"
   fit-margin-left="0"
   fit-margin-right="0"
   fit-margin-bottom="0"
   inkscape:zoom="1.1877551"
   inkscape:cx="218.05842"
   inkscape:cy="277.41409"
   inkscape:window-width="2560"
   inkscape:window-height="1361"
   inkscape:window-x="-9"
   inkscape:window-y="-9"
   inkscape:window-maximized="1"
   inkscape:current-layer="Layer_1" />
<style
   type="text/css"
   id="style2">
	.st0{fill:#A4BBD7;}
	.st1{clip-path:url(#SVGID_2_);}
	.st2{clip-path:url(#SVGID_6_);}
	.st3{fill:none;stroke:#575756;stroke-width:0.25;}
	.st4{clip-path:url(#SVGID_10_);}
	.st5{clip-path:url(#SVGID_14_);}
	.st6{fill:none;stroke:#00679C;stroke-width:0.5;}
	.st7{fill:#00679C;}
	.st8{fill:none;stroke:#000000;stroke-width:0.5;stroke-linejoin:bevel;}
	.st9{fill:#DEE5F0;}
	.st10{fill:#3F4144;}
	.st11{fill:none;stroke:#000000;stroke-width:0.5;}
	.st12{fill:none;stroke:#00679C;stroke-width:0.25;}
	.st13{font-family:'TimesNewRomanPSMT';}
	.st14{font-size:10px;}
</style>
<polyline
   class="st0"
   points="225.1,245.5 225.1,220.2 237.8,208.6 237.8,233.9 225.1,245.5 "
   id="polyline4"
   transform="translate(-86.599998,-90.308247)" />
<path
   class="st0"
   d="m 138.5,129.89175 v 25.2 l 12.7,-11.6 v -25.3 l -12.7,11.7 m -0.2,25.8 v 0 -25.7 l 0.2,-0.1 13,-11.9 v 25.7 l -13.2,12"
   id="path6" />
<path
   class="st0"
   d="m 138.5,129.79175 v 0 m -0.2,0.3 v -0.3 h 0.3 -0.3 l 13.1,-12.1 v 0.3 l -13,11.9 -0.1,0.2"
   id="path8" />
<polyline
   points="224.9,220.1 224.7,219.9 237.9,207.8 238.3,208 238.3,234 238.2,234.2 225,246.2 224.6,246 224.6,220.1   224.7,219.9 224.9,220.1 225.1,220.1 225.1,245.5 237.8,233.9 237.8,208.6 225,220.3 224.9,220.1 225.1,220.1 224.9,220.1 "
   id="polyline10"
   transform="translate(-86.599998,-90.308247)" />
<g
   id="g30"
   transform="translate(-86.599998,-90.308247)">
	<defs
   id="defs13">
		<rect
   id="SVGID_1_"
   x="417.5"
   y="135.39999"
   width="39.700001"
   height="49.599998" />
	</defs>
	<clipPath
   id="SVGID_2_">
		<use
   xlink:href="#SVGID_1_"
   style="overflow:visible"
   id="use15"
   x="0"
   y="0"
   width="100%"
   height="100%" />
	</clipPath>
	<g
   class="st1"
   clip-path="url(#SVGID_2_)"
   id="g28">
		<defs
   id="defs19">
			<rect
   id="SVGID_3_"
   x="417.39999"
   y="135.39999"
   width="39.700001"
   height="49.599998" />
		</defs>
		<clipPath
   id="SVGID_4_">
			<use
   xlink:href="#SVGID_3_"
   style="overflow:visible"
   id="use21"
   x="0"
   y="0"
   width="100%"
   height="100%" />
		</clipPath>
		<g
   clip-path="url(#SVGID_4_)"
   id="g26">
			
				<image
   style="overflow:visible"
   width="83"
   height="104"
   xlink:href="2C3DEF8D.jpg"
   transform="matrix(0.4786,0,0,0.4772,417.447,135.372)"
   id="image24">
			</image>
		</g>
	</g>
</g>
<g
   id="g50"
   transform="translate(-86.599998,-90.308247)">
	<defs
   id="defs33">
		<rect
   id="SVGID_5_"
   x="306.60001"
   y="168.89999"
   width="40.799999"
   height="48.599998" />
	</defs>
	<clipPath
   id="SVGID_6_">
		<use
   xlink:href="#SVGID_5_"
   style="overflow:visible"
   id="use35"
   x="0"
   y="0"
   width="100%"
   height="100%" />
	</clipPath>
	<g
   class="st2"
   clip-path="url(#SVGID_6_)"
   id="g48">
		<defs
   id="defs39">
			<rect
   id="SVGID_7_"
   x="306.60001"
   y="168.89999"
   width="40.799999"
   height="48.599998" />
		</defs>
		<clipPath
   id="SVGID_8_">
			<use
   xlink:href="#SVGID_7_"
   style="overflow:visible"
   id="use41"
   x="0"
   y="0"
   width="100%"
   height="100%" />
		</clipPath>
		<g
   clip-path="url(#SVGID_8_)"
   id="g46">
			
				<image
   style="overflow:visible"
   width="85"
   height="102"
   xlink:href="2C3DEF8F.jpg"
   transform="matrix(0.4801,0,0,0.4765,306.567,168.852)"
   id="image44">
			</image>
		</g>
	</g>
</g>
<rect
   x="281.60001"
   y="0.69175303"
   class="st3"
   width="138.39999"
   height="138.3"
   id="rect52" />
<line
   class="st3"
   x1="420"
   y1="134.09175"
   x2="281.5"
   y2="134.09175"
   id="line54" />
<line
   class="st3"
   x1="420"
   y1="129.09175"
   x2="281.5"
   y2="129.09175"
   id="line56" />
<line
   class="st3"
   x1="420"
   y1="124.19175"
   x2="281.5"
   y2="124.19175"
   id="line58" />
<line
   class="st3"
   x1="420"
   y1="119.19175"
   x2="281.5"
   y2="119.19175"
   id="line60" />
<line
   class="st3"
   x1="420"
   y1="114.29176"
   x2="281.5"
   y2="114.29176"
   id="line62" />
<line
   class="st3"
   x1="420"
   y1="109.39175"
   x2="281.5"
   y2="109.39175"
   id="line64" />
<line
   class="st3"
   x1="420"
   y1="104.39175"
   x2="281.5"
   y2="104.39175"
   id="line66" />
<line
   class="st3"
   x1="420"
   y1="99.491753"
   x2="281.5"
   y2="99.491753"
   id="line68" />
<line
   class="st3"
   x1="420"
   y1="94.491753"
   x2="281.5"
   y2="94.491753"
   id="line70" />
<line
   class="st3"
   x1="420"
   y1="89.591743"
   x2="281.5"
   y2="89.591743"
   id="line72" />
<line
   class="st3"
   x1="420"
   y1="84.69175"
   x2="281.5"
   y2="84.69175"
   id="line74" />
<line
   class="st3"
   x1="420"
   y1="79.69175"
   x2="281.5"
   y2="79.69175"
   id="line76" />
<line
   class="st3"
   x1="420"
   y1="74.791756"
   x2="281.5"
   y2="74.791756"
   id="line78" />
<line
   class="st3"
   x1="420"
   y1="69.791756"
   x2="281.5"
   y2="69.791756"
   id="line80" />
<line
   class="st3"
   x1="420"
   y1="54.991756"
   x2="281.5"
   y2="54.991756"
   id="line82" />
<line
   class="st3"
   x1="420"
   y1="64.891747"
   x2="281.5"
   y2="64.891747"
   id="line84" />
<line
   class="st3"
   x1="420"
   y1="59.991756"
   x2="281.5"
   y2="59.991756"
   id="line86" />
<line
   class="st3"
   x1="420"
   y1="50.091747"
   x2="281.5"
   y2="50.091747"
   id="line88" />
<line
   class="st3"
   x1="420"
   y1="45.091747"
   x2="281.5"
   y2="45.091747"
   id="line90" />
<line
   class="st3"
   x1="420"
   y1="40.191753"
   x2="281.5"
   y2="40.191753"
   id="line92" />
<line
   class="st3"
   x1="420"
   y1="35.291752"
   x2="281.5"
   y2="35.291752"
   id="line94" />
<line
   class="st3"
   x1="420"
   y1="30.291752"
   x2="281.5"
   y2="30.291752"
   id="line96" />
<line
   class="st3"
   x1="420"
   y1="25.39175"
   x2="281.5"
   y2="25.39175"
   id="line98" />
<line
   class="st3"
   x1="420"
   y1="20.39175"
   x2="281.5"
   y2="20.39175"
   id="line100" />
<line
   class="st3"
   x1="420"
   y1="15.491756"
   x2="281.5"
   y2="15.491756"
   id="line102" />
<line
   class="st3"
   x1="420"
   y1="10.591755"
   x2="281.5"
   y2="10.591755"
   id="line104" />
<line
   class="st3"
   x1="420"
   y1="5.5917544"
   x2="281.5"
   y2="5.5917544"
   id="line106" />
<line
   class="st3"
   x1="415"
   y1="0.69175303"
   x2="415"
   y2="138.99176"
   id="line108" />
<line
   class="st3"
   x1="410"
   y1="0.69175303"
   x2="410"
   y2="138.99176"
   id="line110" />
<line
   class="st3"
   x1="405.10001"
   y1="0.69175303"
   x2="405.10001"
   y2="138.99176"
   id="line112" />
<line
   class="st3"
   x1="400.19998"
   y1="0.69175303"
   x2="400.19998"
   y2="138.99176"
   id="line114" />
<line
   class="st3"
   x1="395.19998"
   y1="0.69175303"
   x2="395.19998"
   y2="138.99176"
   id="line116" />
<line
   class="st3"
   x1="390.29999"
   y1="0.69175303"
   x2="390.29999"
   y2="138.99176"
   id="line118" />
<line
   class="st3"
   x1="385.29999"
   y1="0.69175303"
   x2="385.29999"
   y2="138.99176"
   id="line120" />
<line
   class="st3"
   x1="380.39999"
   y1="0.69175303"
   x2="380.39999"
   y2="138.99176"
   id="line122" />
<line
   class="st3"
   x1="375.5"
   y1="0.69175303"
   x2="375.5"
   y2="138.99176"
   id="line124" />
<line
   class="st3"
   x1="370.5"
   y1="0.69175303"
   x2="370.5"
   y2="138.99176"
   id="line126" />
<line
   class="st3"
   x1="365.60001"
   y1="0.69175303"
   x2="365.60001"
   y2="138.99176"
   id="line128" />
<line
   class="st3"
   x1="360.60001"
   y1="0.69175303"
   x2="360.60001"
   y2="138.99176"
   id="line130" />
<line
   class="st3"
   x1="355.69998"
   y1="0.69175303"
   x2="355.69998"
   y2="138.99176"
   id="line132" />
<line
   class="st3"
   x1="350.79999"
   y1="0.69175303"
   x2="350.79999"
   y2="138.99176"
   id="line134" />
<line
   class="st3"
   x1="335.89999"
   y1="0.69175303"
   x2="335.89999"
   y2="138.99176"
   id="line136" />
<line
   class="st3"
   x1="345.79999"
   y1="0.69175303"
   x2="345.79999"
   y2="138.99176"
   id="line138" />
<line
   class="st3"
   x1="340.89999"
   y1="0.69175303"
   x2="340.89999"
   y2="138.99176"
   id="line140" />
<line
   class="st3"
   x1="331"
   y1="0.69175303"
   x2="331"
   y2="138.99176"
   id="line142" />
<line
   class="st3"
   x1="326.10001"
   y1="0.69175303"
   x2="326.10001"
   y2="138.99176"
   id="line144" />
<line
   class="st3"
   x1="321.10001"
   y1="0.69175303"
   x2="321.10001"
   y2="138.99176"
   id="line146" />
<line
   class="st3"
   x1="316.19998"
   y1="0.69175303"
   x2="316.19998"
   y2="138.99176"
   id="line148" />
<line
   class="st3"
   x1="311.19998"
   y1="0.69175303"
   x2="311.19998"
   y2="138.99176"
   id="line150" />
<line
   class="st3"
   x1="306.29999"
   y1="0.69175303"
   x2="306.29999"
   y2="138.99176"
   id="line152" />
<line
   class="st3"
   x1="301.39999"
   y1="0.69175303"
   x2="301.39999"
   y2="138.99176"
   id="line154" />
<line
   class="st3"
   x1="296.39999"
   y1="0.69175303"
   x2="296.39999"
   y2="138.99176"
   id="line156" />
<line
   class="st3"
   x1="291.5"
   y1="0.69175303"
   x2="291.5"
   y2="138.99176"
   id="line158" />
<line
   class="st3"
   x1="286.5"
   y1="0.69175303"
   x2="286.5"
   y2="138.99176"
   id="line160" />
<polygon
   class="st3"
   points="362.4,90.6 292.5,157.2 292.5,295.6 362.4,228.9 "
   id="polygon162"
   transform="translate(-86.599998,-90.308247)" />
<line
   class="st3"
   x1="205.89999"
   y1="200.29176"
   x2="275.79999"
   y2="133.69176"
   id="line164" />
<line
   class="st3"
   x1="205.89999"
   y1="195.39177"
   x2="275.79999"
   y2="128.69176"
   id="line166" />
<line
   class="st3"
   x1="205.89999"
   y1="190.49174"
   x2="275.79999"
   y2="123.79176"
   id="line168" />
<line
   class="st3"
   x1="205.89999"
   y1="185.49174"
   x2="275.79999"
   y2="118.89175"
   id="line170" />
<line
   class="st3"
   x1="205.89999"
   y1="180.59175"
   x2="275.79999"
   y2="113.89175"
   id="line172" />
<line
   class="st3"
   x1="205.89999"
   y1="175.59175"
   x2="275.79999"
   y2="108.99175"
   id="line174" />
<line
   class="st3"
   x1="205.89999"
   y1="170.69176"
   x2="275.79999"
   y2="103.99175"
   id="line176" />
<line
   class="st3"
   x1="205.89999"
   y1="165.69176"
   x2="275.79999"
   y2="99.091743"
   id="line178" />
<line
   class="st3"
   x1="205.89999"
   y1="160.79176"
   x2="275.79999"
   y2="94.19175"
   id="line180" />
<line
   class="st3"
   x1="205.89999"
   y1="155.89175"
   x2="275.79999"
   y2="89.19175"
   id="line182" />
<line
   class="st3"
   x1="205.89999"
   y1="150.89175"
   x2="275.79999"
   y2="84.291756"
   id="line184" />
<line
   class="st3"
   x1="205.89999"
   y1="145.99176"
   x2="275.79999"
   y2="79.291756"
   id="line186" />
<line
   class="st3"
   x1="205.89999"
   y1="141.09175"
   x2="275.79999"
   y2="74.391747"
   id="line188" />
<line
   class="st3"
   x1="205.89999"
   y1="136.09175"
   x2="275.79999"
   y2="69.491753"
   id="line190" />
<line
   class="st3"
   x1="205.89999"
   y1="121.29176"
   x2="275.79999"
   y2="54.591747"
   id="line192" />
<line
   class="st3"
   x1="205.89999"
   y1="131.19176"
   x2="275.79999"
   y2="64.491753"
   id="line194" />
<line
   class="st3"
   x1="205.89999"
   y1="126.19175"
   x2="275.79999"
   y2="59.591747"
   id="line196" />
<line
   class="st3"
   x1="205.89999"
   y1="116.29176"
   x2="275.79999"
   y2="49.691753"
   id="line198" />
<line
   class="st3"
   x1="205.89999"
   y1="111.39175"
   x2="275.79999"
   y2="44.791759"
   id="line200" />
<line
   class="st3"
   x1="205.89999"
   y1="106.49175"
   x2="275.79999"
   y2="39.791759"
   id="line202" />
<line
   class="st3"
   x1="205.89999"
   y1="101.49175"
   x2="275.79999"
   y2="34.89175"
   id="line204" />
<line
   class="st3"
   x1="205.89999"
   y1="96.591743"
   x2="275.79999"
   y2="29.89175"
   id="line206" />
<line
   class="st3"
   x1="205.89999"
   y1="91.591743"
   x2="275.79999"
   y2="24.991756"
   id="line208" />
<line
   class="st3"
   x1="205.89999"
   y1="86.69175"
   x2="275.79999"
   y2="20.091755"
   id="line210" />
<line
   class="st3"
   x1="205.89999"
   y1="81.791756"
   x2="275.79999"
   y2="15.091755"
   id="line212" />
<line
   class="st3"
   x1="205.89999"
   y1="76.791756"
   x2="275.79999"
   y2="10.191753"
   id="line214" />
<line
   class="st3"
   x1="205.89999"
   y1="71.891747"
   x2="275.79999"
   y2="5.1917529"
   id="line216" />
<line
   class="st3"
   x1="208.39999"
   y1="64.491753"
   x2="208.39999"
   y2="202.89177"
   id="line218" />
<line
   class="st3"
   x1="210.89999"
   y1="62.091747"
   x2="210.89999"
   y2="200.49174"
   id="line220" />
<line
   class="st3"
   x1="213.39999"
   y1="59.791759"
   x2="213.39999"
   y2="198.09175"
   id="line222" />
<line
   class="st3"
   x1="215.89999"
   y1="57.39175"
   x2="215.89999"
   y2="195.69176"
   id="line224" />
<line
   class="st3"
   x1="218.39999"
   y1="54.991756"
   x2="218.39999"
   y2="193.39177"
   id="line226" />
<line
   class="st3"
   x1="220.89999"
   y1="52.591747"
   x2="220.89999"
   y2="190.99174"
   id="line228" />
<line
   class="st3"
   x1="223.39999"
   y1="50.291759"
   x2="223.39999"
   y2="188.59175"
   id="line230" />
<line
   class="st3"
   x1="225.89999"
   y1="47.89175"
   x2="225.89999"
   y2="186.19176"
   id="line232" />
<line
   class="st3"
   x1="228.39999"
   y1="45.491756"
   x2="228.39999"
   y2="183.89177"
   id="line234" />
<line
   class="st3"
   x1="230.89999"
   y1="43.091747"
   x2="230.89999"
   y2="181.49174"
   id="line236" />
<line
   class="st3"
   x1="233.39999"
   y1="40.791759"
   x2="233.39999"
   y2="179.09175"
   id="line238" />
<line
   class="st3"
   x1="235.79999"
   y1="38.39175"
   x2="235.79999"
   y2="176.69176"
   id="line240" />
<line
   class="st3"
   x1="238.29999"
   y1="35.991756"
   x2="238.29999"
   y2="174.29176"
   id="line242" />
<line
   class="st3"
   x1="240.79999"
   y1="33.591755"
   x2="240.79999"
   y2="171.99174"
   id="line244" />
<line
   class="st3"
   x1="248.29999"
   y1="26.491756"
   x2="248.29999"
   y2="164.79176"
   id="line246" />
<line
   class="st3"
   x1="243.29999"
   y1="31.191753"
   x2="243.29999"
   y2="169.59175"
   id="line248" />
<line
   class="st3"
   x1="245.79999"
   y1="28.89175"
   x2="245.79999"
   y2="167.19176"
   id="line250" />
<line
   class="st3"
   x1="250.79999"
   y1="24.091755"
   x2="250.79999"
   y2="162.49176"
   id="line252" />
<line
   class="st3"
   x1="253.29999"
   y1="21.691753"
   x2="253.29999"
   y2="160.09175"
   id="line254" />
<line
   class="st3"
   x1="255.79999"
   y1="19.39175"
   x2="255.79999"
   y2="157.69176"
   id="line256" />
<line
   class="st3"
   x1="258.29999"
   y1="16.991756"
   x2="258.29999"
   y2="155.29176"
   id="line258" />
<line
   class="st3"
   x1="260.79999"
   y1="14.591755"
   x2="260.79999"
   y2="152.89175"
   id="line260" />
<line
   class="st3"
   x1="263.29999"
   y1="12.191753"
   x2="263.29999"
   y2="150.59175"
   id="line262" />
<line
   class="st3"
   x1="265.79999"
   y1="9.7917519"
   x2="265.79999"
   y2="148.19176"
   id="line264" />
<line
   class="st3"
   x1="268.29999"
   y1="7.491756"
   x2="268.29999"
   y2="145.79176"
   id="line266" />
<line
   class="st3"
   x1="270.79999"
   y1="5.0917544"
   x2="270.79999"
   y2="143.39175"
   id="line268" />
<line
   class="st3"
   x1="273.29999"
   y1="2.6917529"
   x2="273.29999"
   y2="141.09175"
   id="line270" />
<g
   id="g290"
   transform="translate(-86.599998,-90.308247)">
	<defs
   id="defs273">
		<rect
   id="SVGID_9_"
   x="172.39999"
   y="111"
   width="14.4"
   height="14.4" />
	</defs>
	<clipPath
   id="SVGID_10_">
		<use
   xlink:href="#SVGID_9_"
   style="overflow:visible"
   id="use275"
   x="0"
   y="0"
   width="100%"
   height="100%" />
	</clipPath>
	<g
   class="st4"
   clip-path="url(#SVGID_10_)"
   id="g288">
		<defs
   id="defs279">
			<rect
   id="SVGID_11_"
   x="172.39999"
   y="111"
   width="14.4"
   height="14.4" />
		</defs>
		<clipPath
   id="SVGID_12_">
			<use
   xlink:href="#SVGID_11_"
   style="overflow:visible"
   id="use281"
   x="0"
   y="0"
   width="100%"
   height="100%" />
		</clipPath>
		<g
   clip-path="url(#SVGID_12_)"
   id="g286">
			
				<image
   style="overflow:visible"
   width="31"
   height="31"
   xlink:href="2C3DEF8A.jpg"
   transform="matrix(0.4657,0,0,0.4657,172.437,110.952)"
   id="image284">
			</image>
		</g>
	</g>
</g>
<g
   id="g310"
   transform="translate(-86.599998,-90.308247)">
	<defs
   id="defs293">
		<rect
   id="SVGID_13_"
   x="86.599998"
   y="227.2"
   width="72"
   height="85.900002" />
	</defs>
	<clipPath
   id="SVGID_14_">
		<use
   xlink:href="#SVGID_13_"
   style="overflow:visible"
   id="use295"
   x="0"
   y="0"
   width="100%"
   height="100%" />
	</clipPath>
	<g
   class="st5"
   clip-path="url(#SVGID_14_)"
   id="g308">
		<defs
   id="defs299">
			<rect
   id="SVGID_15_"
   x="86.599998"
   y="227.2"
   width="72"
   height="86" />
		</defs>
		<clipPath
   id="SVGID_16_">
			<use
   xlink:href="#SVGID_15_"
   style="overflow:visible"
   id="use301"
   x="0"
   y="0"
   width="100%"
   height="100%" />
		</clipPath>
		<g
   clip-path="url(#SVGID_16_)"
   id="g306">
			
				<image
   style="overflow:visible"
   width="150"
   height="179"
   xlink:href="2C3DEF8B.jpg"
   transform="matrix(0.4802,0,0,0.4802,86.577,227.172)"
   id="image304">
			</image>
		</g>
	</g>
</g>
<line
   class="st6"
   x1="83.700005"
   y1="33.191753"
   x2="75.200005"
   y2="36.89175"
   id="line312" />
<path
   class="st7"
   d="m 75.800002,36.691753 1.3,0.9 v 0 l -2.4,0.1 c -0.8,0.2 -1.5,0.3 -2.3,0.5 0.6,-0.5 1.3,-0.9 1.9,-1.4 l 1.7,-1.7 h 0.1"
   id="path314" />
<line
   class="st6"
   x1="85.900002"
   y1="35.39175"
   x2="79.599998"
   y2="42.191753"
   id="line316" />
<path
   class="st7"
   d="m 80.000002,41.691753 1.5,0.3 v 0.1 l -2.1,1 c -0.6,0.5 -1.3,0.9 -1.9,1.4 0.4,-0.7 0.8,-1.4 1.2,-2 l 0.9,-2.2 v 0"
   id="path318" />
<line
   class="st6"
   x1="92.099998"
   y1="37.691753"
   x2="92.500008"
   y2="46.991756"
   id="line320" />
<path
   class="st7"
   d="m 92.500002,46.291753 1.3,-0.9 v 0 l -0.8,2.2 c -0.1,0.8 -0.3,1.5 -0.4,2.3 -0.2,-0.8 -0.4,-1.5 -0.6,-2.3 l -1,-2.2 v 0"
   id="path322" />
<line
   class="st6"
   x1="95.500008"
   y1="37.89175"
   x2="99.500008"
   y2="46.291759"
   id="line324" />
<path
   class="st7"
   d="m 99.200002,45.691753 0.899998,-1.3 v 0 l 0.2,2.4 c 0.2,0.8 0.4,1.5 0.5,2.3 -0.5,-0.6 -0.999998,-1.2 -1.399998,-1.9 l -1.7,-1.6 v -0.1"
   id="path326" />
<line
   class="st6"
   x1="88.900002"
   y1="36.591755"
   x2="80.799995"
   y2="57.791759"
   id="line328" />
<path
   class="st7"
   d="m 81.000002,57.191753 1.6,-0.3 v 0.1 l -1.6,1.7 c -0.4,0.7 -0.9,1.3 -1.3,2 0.1,-0.8 0.2,-1.6 0.4,-2.3 v -2.4 0"
   id="path330" />
<polygon
   class="st8"
   points="233.6,229.2 229.4,233.1 229.4,224.8 233.6,221 "
   id="polygon332"
   transform="translate(-86.599998,-90.308247)" />
<polyline
   class="st9"
   points="224.8,219.9 216.4,219.9 229.1,208.3 237.4,208.3 224.8,219.9 "
   id="polyline334"
   transform="translate(-86.599998,-90.308247)" />
<path
   class="st9"
   d="m 129.8,129.59175 h 8.3 l 12.6,-11.6 h -8.3 l -12.6,11.6 m 8.2,0.2 h -8.8 l 13.2,-12.1 h 8.7 l -13,11.9 0.2,0.2 -0.2,-0.2 -0.1,0.2"
   id="path336" />
<path
   class="st10"
   d="m 138.3,129.79175 -0.2,-0.2 13,-11.9 h 0.4 l -13.2,12.1 m 0,0 H 138 l 0.1,-0.2 0.2,0.2"
   id="path338" />
<polyline
   points="215.8,220.1 215.6,219.9 228.8,207.8 229,207.8 238,207.8 238.2,208.2 225,220.3 224.9,220.4 215.8,220.4   215.6,219.9 215.8,220.1 215.8,219.9 224.8,219.9 237.4,208.3 229.1,208.3 216,220.3 215.8,220.1 215.8,219.9 215.8,220.1 "
   id="polyline340"
   transform="translate(-86.599998,-90.308247)" />
<polyline
   class="st9"
   points="224.6,246 215.8,246 215.8,220.4 224.6,220.4 224.6,246 224.6,246 "
   id="polyline342"
   transform="translate(-86.599998,-90.308247)" />
<polyline
   class="st10"
   points="224.9,246 224.6,246 224.6,246 224.6,220.4 224.9,220.4 224.9,246 "
   id="polyline344"
   transform="translate(-86.599998,-90.308247)" />
<rect
   x="129.20001"
   y="129.79176"
   class="st10"
   width="9.1000004"
   height="0.2"
   id="rect346" />
<rect
   x="129.20001"
   y="129.79176"
   class="st11"
   width="9.1000004"
   height="25.9"
   id="rect348" />
<polyline
   class="st6"
   points="143.3,214.1 122.6,270.3 209.7,233.8 "
   id="polyline350"
   transform="translate(-86.599998,-90.308247)" />
<path
   class="st7"
   d="m 122.5,143.69175 -1.3,-0.9 v 0 h 2.4 c 0.8,-0.1 1.5,-0.3 2.3,-0.4 -0.6,0.5 -1.3,0.9 -1.9,1.4 l -1.7,1.7 h -0.1"
   id="path352" />
<line
   class="st12"
   x1="144.89999"
   y1="136.89175"
   x2="235.79999"
   y2="107.69175"
   id="line354" />
<line
   class="st12"
   x1="142.79999"
   y1="134.49176"
   x2="205.89999"
   y2="66.891747"
   id="line356" />
<line
   class="st12"
   x1="147"
   y1="138.89175"
   x2="275.79999"
   y2="138.59175"
   id="line358" />
<line
   class="st12"
   x1="142.79999"
   y1="142.79176"
   x2="205.89999"
   y2="205.19176"
   id="line360" />
<line
   class="st12"
   x1="147"
   y1="130.69176"
   x2="275.79999"
   y2="0.29175147"
   id="line362" />
<text
   class="st13 st14"
   id="text364"
   x="106.88"
   y="29.835752">Illumination (energy)</text>
<text
   class="st13 st14"
   id="text366"
   x="106.88"
   y="38.835754">source</text>
<text
   class="st13 st14"
   id="text368"
   x="106.0479"
   y="165.01985">Imaging system</text>
<text
   class="st13 st14"
   id="text370"
   x="166.0479"
   y="216.01985">(Internal) image plane</text>
<text
   class="st13 st14"
   id="text372"
   x="307.60019"
   y="148.68396">Output (digitized) image</text>
<text
   class="st13 st14"
   id="text374"
   x="24.024002"
   y="232.58775">Scene</text>
</svg>
